PathFileType	4	(X/Y/Z)	Patient4_TMGait_0pt3_03_left_01.trc.trc
DataRate	CameraRate	NumFrames	NumMarkers	Units	OrigDataRate	OrigDataStartFrame	OrigNumFrames
56.000000000000	56.000000000000	5	33	mm	56.000000000000	36	       141
Frame#	Time	Sacral			L.Shoulder			Chest			R.Shoulder			Neck			R.ASIS			L.ASIS			R.Thigh.Superior			R.Thigh.Lateral			R.Thigh.Inferior			R.Patella			L.Thigh.Superior			L.Thigh.Lateral			L.Thigh.Inferior			L.Patella			L.Shank.Superior			L.Shank.Lateral			L.Shank.Inferior			R.Shank.Superior			R.Shank.Lateral			R.Shank.Inferior			R.Heel			R.Midfoot.Superior			R.Midfoot.Lateral			R.Toe			L.Heel			L.Midfoot.Lateral			L.Midfoot.Superior			L.Toe			L.Elbow			L.Wrist			R.Elbow			R.Wrist			
		X1	Y1	Z1	X2	Y2	Z2	X3	Y3	Z3	X4	Y4	Z4	X5	Y5	Z5	X6	Y6	Z6	X7	Y7	Z7	X8	Y8	Z8	X9	Y9	Z9	X10	Y10	Z10	X11	Y11	Z11	X12	Y12	Z12	X13	Y13	Z13	X14	Y14	Z14	X15	Y15	Z15	X16	Y16	Z16	X17	Y17	Z17	X18	Y18	Z18	X19	Y19	Z19	X20	Y20	Z20	X21	Y21	Z21	X22	Y22	Z22	X23	Y23	Z23	X24	Y24	Z24	X25	Y25	Z25	X26	Y26	Z26	X27	Y27	Z27	X28	Y28	Z28	X29	Y29	Z29	X30	Y30	Z30	X31	Y31	Z31	X32	Y32	Z32	X33	Y33	Z33	

36	1.525000000000	760.816449173571	1008.364344386244	526.606408426000	912.537628491142	1419.186511925481	298.079027634313	1047.717723923783	1348.620524818101	433.370513192192	1011.694056054010	1434.184256513749	616.443155985129	938.242749260460	1486.975606254692	449.058605461690	1002.433946727529	931.129198833198	604.800546949149	945.968557468680	952.488954309035	336.448642045417	995.236011533073	719.046556492317	575.781726741039	898.907293194221	623.255345774916	646.489239368926	950.599308455857	559.053694008562	558.971861487188	930.668906356309	468.289498042206	565.848244263364	1023.194507886014	763.319821224742	371.266953596311	957.790087340783	635.420156248922	303.742232430034	1057.812332889253	572.306350276127	362.396107180264	1070.317841384342	500.820913428636	365.527846262153	1047.423174515633	427.093872926566	354.341028586777	965.427954093460	309.724878388587	297.030624082839	1026.110148178539	197.803658502722	359.690665889128	878.850230713433	389.460478272638	577.111119826443	790.799523172030	307.520635747107	651.434382593778	795.903036369447	206.408386055207	584.013275276836	622.457177251906	65.313608427313	576.394393768266	802.505033533848	99.769192667325	588.151644662186	714.122583947221	46.971353252916	636.864072390713	917.304797725312	37.415162410096	597.306266229721	906.615686002906	38.845671613746	390.695807911171	983.537482128268	36.469255419982	312.831564208788	1065.516398119433	97.871289550340	342.874362890658	1194.356781595720	47.324428491484	318.221574669500	777.300942361604	1089.752171908921	216.680572921275	778.139335703769	828.316075452293	241.759855938046	1188.875058205677	1140.272109104110	705.398569714873	1405.434777007124	1205.095598152393	588.921503060514	
37	1.542857142857	761.140028190747	1009.560080361451	521.115874283984	914.391906548009	1420.171886773797	293.367273964812	1048.748016144043	1349.560841289878	429.467523946899	1011.710589106008	1435.347763997688	612.207439902631	939.156220261049	1488.035583517493	444.579522302443	1002.162957846778	932.071352219173	600.837146603918	947.323582859941	953.214583502110	332.196968026952	994.594923744177	719.856261374177	572.971492259919	897.823467604416	624.639318910407	643.886988544746	950.053938164584	559.707307307055	557.152149024341	930.007632458043	468.604914769753	564.824567861220	1023.152880728419	763.111283279542	367.363116507250	956.701533595677	635.463708699987	300.542033709683	1056.046305995835	571.783333762680	359.606911821980	1067.993652546688	500.254104104299	363.247791566202	1044.677724562068	426.570715267722	352.440431381204	962.085262028565	309.449965261879	295.503923667556	1021.668364166498	197.472247236191	359.048794557580	877.281561582836	390.372414845226	576.149908680298	787.939776335321	309.795913990849	650.406636008334	792.747677960459	208.020556149117	583.910846325000	618.005471788612	68.659646549753	576.500692059962	798.484324931009	100.401892411076	588.377548111004	709.376876039995	48.644097188524	636.920671902200	912.138364245905	37.233109741878	597.273343424401	901.256353363839	38.844583719478	390.661579512184	978.153739238769	36.435728107654	312.766065563037	1060.240610292316	97.722628695037	342.803862705370	1189.079944829082	46.888933926720	318.159776797578	780.578277037051	1090.665630135755	209.062253044411	784.401542511716	829.179147444209	233.335885176454	1188.806163616329	1141.309549648044	701.351805765976	1408.361485874620	1199.397227640405	586.566496149756	
38	1.560714285714	761.496349736472	1010.666906119633	515.615508819726	916.247691301189	1421.148921903348	288.687822570953	1049.695945160290	1350.551021415998	425.687216820106	1011.526725299133	1436.573677396036	608.068549392990	939.966380079608	1489.105615584070	440.147140975590	1001.897492971425	933.036297219940	596.846969854456	948.673386607787	953.961281097661	327.916959392675	994.322583594644	720.734502626262	569.972358371340	897.376676035696	625.903486379766	641.124469949115	950.239773910068	560.335228330776	555.129407570837	930.211095716974	468.728038338597	563.691445923130	1023.001791939422	762.782444238035	363.166073938517	955.274132764211	635.455511206713	297.239165118656	1053.978389756039	571.173735812023	356.589833007021	1065.330292388898	499.655323243157	360.748213757266	1041.627610500372	426.035672764038	350.365563628812	958.432019555806	309.106380654498	293.908083279072	1017.103998393669	197.149155628073	358.315762983543	876.386871935531	391.170134354060	575.072144632320	785.668963030184	312.118501653096	649.268939875806	789.996811815681	209.671450215262	583.763535733497	613.704482628490	72.311588096325	576.602385797519	794.662346756169	101.045352198502	588.595416269770	704.731253469051	50.486557909213	636.981338474568	906.998039995702	37.092638089920	597.226160478818	895.860283835105	38.824459343395	390.630647948720	972.736518803797	36.370003428019	312.701147810954	1054.923959548259	97.557085150221	342.711146621533	1183.763170828513	46.458024297465	318.111267116754	784.411335307935	1091.352662973648	201.381475480277	791.142396151953	829.866217367409	224.904914862918	1188.065408346009	1142.096181348081	697.739354444322	1410.721556877124	1192.689689380552	585.071975699719	
39	1.578571428571	761.870128890750	1011.683096726676	510.127967865085	918.061873692704	1422.108195846603	284.066640449306	1050.540552740490	1351.582684456104	422.030185276457	1011.154820087973	1437.842907884522	604.038953840094	940.657045249705	1490.172944740869	435.779110770184	1001.638426213166	934.011373578148	592.826834092724	950.005224870616	954.727155691263	323.614414096831	994.447122873349	721.664358671153	566.795942436394	897.600528067085	627.017681175826	638.205660021741	951.206817960408	560.920479177107	552.909678197099	931.329434057299	468.639491550960	562.459849577176	1022.756766887365	762.360657728003	358.723522156283	953.561233359123	635.414149629315	293.853182569609	1051.657249501310	570.501755857644	353.375358896742	1062.377658082852	499.041590246555	358.058745955127	1038.325134870453	425.501441894119	348.140204190479	954.522107667043	308.716014104198	292.250869224601	1012.446381501908	196.842510301910	357.501350832504	876.223263471958	391.841342070667	573.889444614045	784.037018161678	314.492862664989	648.024384329698	787.690805459101	211.364717288424	583.568472610509	609.591806101143	76.317243427801	576.694140159982	791.066307165194	101.693999711920	588.800016203795	700.208345110426	52.534589441063	637.042636492621	901.888211520276	36.989751009198	597.163735013066	890.443900039389	38.793218253772	390.600843841516	967.301002535824	36.285453757757	312.634295828923	1049.577353241319	97.389028264282	342.597005545191	1178.419494721645	46.060689293776	318.069564543972	788.867178446728	1091.757587430037	193.709129113589	798.429156676987	830.316551737143	216.489111035616	1186.520040514963	1142.516256142286	694.609699777934	1412.316855127297	1184.796138201098	584.484619289656	
40	1.596428571429	762.241587586871	1012.604158570804	504.665489696713	919.800944893117	1423.041394253096	279.530126357048	1051.265329152839	1352.643152967315	418.501109987293	1010.603227833518	1439.126497207232	600.134756811687	941.217040373832	1491.221889422786	431.495653403002	1001.380756176957	934.979641694116	588.779209346634	951.313139274778	955.505351592081	319.298202684546	994.995733783873	722.629659473733	563.470709629804	898.517794329990	627.956537091077	635.140962082858	953.000904007913	561.450453139852	550.510733076056	933.403883228579	468.332246728193	561.143912358780	1022.438028526067	761.867755218464	354.105800025554	951.640939373971	635.352775427782	290.408371930235	1049.146878139535	569.787951442441	350.019255708887	1059.204059848195	498.422742522559	355.230469566547	1034.836679482974	424.973936864510	345.804573137035	950.427154731571	308.297471667268	290.549251135908	1007.726960234004	196.553880200937	356.625266158690	876.849117386443	392.381732681539	572.616545490258	783.093195909325	316.931798749281	646.676368502560	785.873976781242	213.113974258635	583.322341724275	605.719479586895	80.748790858210	576.768633228470	787.726359399862	102.353356023957	588.985399525399	695.837458266431	54.844048082468	637.098575416804	896.811053225901	36.910977732442	597.084777124993	885.020316816139	38.756850910481	390.570618369434	961.859317146271	36.193649208610	312.564416825118	1044.210450583731	97.228946077797	342.465110497983	1173.060639288693	45.714095839182	318.029212954814	794.000349019901	1091.843028726823	186.120285804556	806.324726516142	830.487881638088	208.118014336107	1184.059795712328	1142.470654190184	691.989008425472	1412.956514191658	1175.573487639538	584.823588625964	
